<svg 
 xmlns="http://www.w3.org/2000/svg"
 xmlns:xlink="http://www.w3.org/1999/xlink"
 width="31px" height="28px">
<path fill-rule="evenodd"  fill="rgb(44, 50, 51)"
 d="M30.164,8.412 C30.161,6.492 28.817,4.819 26.988,4.800 L21.031,4.800 L21.031,2.142 C21.029,1.062 20.155,0.185 19.074,0.183 L11.707,0.183 C10.624,0.185 9.750,1.062 9.748,2.142 L9.748,4.800 L3.792,4.800 C1.961,4.819 0.620,6.492 0.617,8.412 L0.617,11.866 C0.617,11.891 0.617,11.914 0.620,11.932 C0.617,11.950 0.617,11.972 0.617,11.998 C0.617,12.164 0.639,12.319 0.671,12.455 C0.854,13.194 1.348,13.795 2.054,14.311 L2.054,23.320 C2.057,25.721 4.011,27.677 6.413,27.680 L24.367,27.680 C26.769,27.677 28.725,25.721 28.728,23.320 L28.728,14.311 C29.432,13.793 29.925,13.193 30.107,12.451 C30.141,12.319 30.162,12.164 30.162,11.998 C30.162,11.970 30.162,11.945 30.161,11.929 C30.162,11.912 30.162,11.889 30.162,11.866 L30.164,8.412 ZM10.979,2.142 C10.980,1.746 11.309,1.415 11.707,1.415 L19.074,1.415 C19.472,1.415 19.801,1.746 19.803,2.142 L19.803,4.800 L10.977,4.800 L10.979,2.142 ZM27.495,15.046 L27.495,23.320 C27.492,25.035 26.085,26.443 24.367,26.447 L6.413,26.447 C4.695,26.443 3.289,25.035 3.284,23.320 L3.284,15.046 C3.326,15.067 3.379,15.086 3.422,15.107 C3.660,15.219 3.906,15.328 4.166,15.434 C6.109,16.202 8.732,16.752 11.722,17.006 L11.722,18.317 C11.725,19.167 12.410,19.854 13.260,19.855 L17.518,19.855 C18.368,19.854 19.054,19.167 19.057,18.317 L19.057,17.006 C20.383,16.892 21.633,16.721 22.789,16.498 C24.236,16.218 25.531,15.862 26.613,15.434 L26.613,15.434 L26.613,15.434 C26.876,15.327 27.121,15.217 27.363,15.103 C27.405,15.084 27.453,15.066 27.495,15.046 ZM12.952,15.856 L12.952,15.291 C12.952,15.126 13.096,14.983 13.260,14.983 L17.518,14.983 C17.683,14.983 17.826,15.126 17.826,15.291 L17.826,15.856 L17.826,15.857 L17.826,17.088 L17.826,17.090 L17.826,18.317 C17.826,18.481 17.683,18.624 17.518,18.625 L13.260,18.625 C13.096,18.624 12.952,18.481 12.952,18.317 L12.952,17.090 L12.952,17.088 L12.952,15.857 L12.952,15.856 ZM26.988,6.032 C27.974,6.034 28.929,7.036 28.932,8.412 L28.932,11.847 C28.929,11.865 28.928,11.891 28.928,11.929 C28.928,11.972 28.929,12.003 28.932,12.018 C28.929,12.063 28.922,12.117 28.908,12.185 C28.844,12.607 28.318,13.184 27.369,13.722 C27.301,13.760 27.229,13.799 27.157,13.835 C27.088,13.873 27.016,13.908 26.940,13.945 C26.852,13.989 26.756,14.034 26.660,14.077 C26.501,14.149 26.338,14.219 26.160,14.288 C24.848,14.809 23.132,15.235 21.166,15.524 C20.493,15.623 19.787,15.704 19.057,15.767 L19.057,15.291 C19.054,14.438 18.368,13.753 17.518,13.751 L13.260,13.751 C12.410,13.753 11.725,14.438 11.722,15.291 L11.722,15.767 C11.129,15.717 10.555,15.651 9.998,15.576 C7.871,15.288 6.016,14.844 4.619,14.288 C4.439,14.219 4.271,14.146 4.109,14.073 C4.020,14.032 3.936,13.992 3.855,13.951 C3.768,13.912 3.687,13.870 3.607,13.828 C3.541,13.793 3.478,13.760 3.416,13.726 C2.463,13.187 1.937,12.610 1.871,12.189 C1.858,12.122 1.850,12.068 1.847,12.024 C1.848,12.012 1.850,11.991 1.853,11.959 L1.853,11.926 L1.853,11.894 C1.850,11.865 1.848,11.842 1.847,11.831 L1.848,8.412 C1.848,7.036 2.805,6.034 3.792,6.032 L26.988,6.032 Z"/>
</svg>