<svg 
 xmlns="http://www.w3.org/2000/svg"
 xmlns:xlink="http://www.w3.org/1999/xlink"
 width="30px" height="26px">
<path fill-rule="evenodd"  fill="rgb(44, 50, 51)"
 d="M14.373,25.376 C14.340,25.347 14.320,25.323 14.313,25.319 L14.313,25.319 L14.545,25.102 L14.311,25.316 C10.465,21.468 7.036,18.127 4.547,15.284 L4.547,15.284 C2.072,12.427 0.463,10.137 0.426,8.030 L0.426,8.030 C0.426,7.993 0.423,7.940 0.430,7.872 L0.430,7.872 C0.453,3.764 3.778,0.453 7.889,0.445 L7.889,0.445 C10.876,0.445 13.448,2.211 14.635,4.753 L14.635,4.753 L14.801,5.109 L14.807,5.099 L14.969,4.751 C16.159,2.211 18.732,0.445 21.721,0.445 L21.721,0.445 C25.844,0.453 29.170,3.783 29.178,7.875 L29.178,7.875 C29.180,7.930 29.180,7.984 29.182,8.034 L29.182,8.034 C29.144,10.139 27.532,12.429 25.059,15.286 L25.059,15.286 C22.572,18.124 19.152,21.459 15.310,25.300 L15.310,25.300 C15.299,25.311 15.289,25.323 15.283,25.331 L15.283,25.331 L15.283,25.331 L14.850,25.800 L14.373,25.376 L14.373,25.376 ZM1.728,7.904 L1.726,7.939 L1.726,7.961 C1.726,7.962 1.725,7.988 1.725,8.030 L1.725,8.030 C1.687,9.392 3.074,11.663 5.523,14.428 L5.523,14.428 C7.871,17.109 11.133,20.308 14.805,23.971 L14.805,23.971 C18.481,20.299 21.736,17.106 24.080,14.430 L24.080,14.430 C26.531,11.667 27.920,9.395 27.883,8.034 L27.883,8.034 C27.883,7.996 27.881,7.961 27.879,7.904 L27.879,7.904 C27.871,4.498 25.128,1.751 21.721,1.743 L21.721,1.743 C19.257,1.743 17.130,3.200 16.144,5.300 L16.144,5.300 L15.983,5.650 L15.890,5.845 L15.869,5.879 C15.656,6.216 15.271,6.472 14.805,6.472 L14.805,6.472 C14.310,6.472 13.900,6.182 13.686,5.790 L13.686,5.790 C13.680,5.777 13.653,5.732 13.623,5.658 L13.623,5.658 L13.457,5.301 C12.477,3.200 10.354,1.743 7.891,1.743 L7.891,1.743 C4.482,1.750 1.733,4.498 1.728,7.904 L1.728,7.904 ZM14.838,5.197 C14.838,5.197 14.840,5.200 14.830,5.179 L14.830,5.179 L14.830,5.179 L14.838,5.197 L14.838,5.197 Z"/>
</svg>