<svg xmlns="http://www.w3.org/2000/svg" xmlns:xlink="http://www.w3.org/1999/xlink" viewBox="0 0 54.49 52.02"><defs><style>.cls-1{fill:url(#New_Gradient_Swatch_4);}.cls-2{fill:#233148;}</style><linearGradient id="New_Gradient_Swatch_4" x1="1.85" y1="18.63" x2="52.64" y2="18.63" gradientUnits="userSpaceOnUse"><stop offset="0" stop-color="#15eded"/><stop offset="1" stop-color="#029cf5"/></linearGradient></defs><title>Asset 1</title><g id="Layer_2" data-name="Layer 2"><g id="Layer_1-2" data-name="Layer 1"><path class="cls-1" d="M48,35.4H6.47a4.64,4.64,0,0,1-4.24-2.79,4.58,4.58,0,0,1-.38-1.83V6.46A4.62,4.62,0,0,1,6.46,1.85H48a4.62,4.62,0,0,1,4.62,4.61V30.78A4.62,4.62,0,0,1,48,35.4Z"/><path class="cls-2" d="M48,0H6.47A6.48,6.48,0,0,0,0,6.46V30.78a6.48,6.48,0,0,0,3.92,5.95V47.64a5.2,5.2,0,0,0,.79,2.92A3.27,3.27,0,0,0,7.37,52h.07a4.86,4.86,0,0,0,3.07-1.26L23.3,40.29c1.06-.87,2.65-2,4.2-3H48a6.49,6.49,0,0,0,6.47-6.47V6.46A6.48,6.48,0,0,0,48,0ZM21,37.44,8.18,47.9a3.16,3.16,0,0,1-.5.34,2.85,2.85,0,0,1-.06-.6V37.25H21.2ZM50.8,30.78A2.81,2.81,0,0,1,48,33.56H6.47a2.83,2.83,0,0,1-2.55-1.69,2.79,2.79,0,0,1-.22-1.09V6.46A2.8,2.8,0,0,1,6.47,3.69H48A2.81,2.81,0,0,1,50.8,6.46V30.78Z"/></g></g></svg>