<svg xmlns="http://www.w3.org/2000/svg" xmlns:xlink="http://www.w3.org/1999/xlink" viewBox="0 0 48.11 58.91"><defs><style>.cls-1{fill:url(#New_Gradient_Swatch_4);}.cls-2{fill:#233148;}</style><linearGradient id="New_Gradient_Swatch_4" x1="1.85" y1="9.14" x2="37.96" y2="9.14" gradientUnits="userSpaceOnUse"><stop offset="0" stop-color="#15eded"/><stop offset="1" stop-color="#029cf5"/></linearGradient></defs><title>Asset 1</title><g id="Layer_2" data-name="Layer 2"><g id="Layer_1-2" data-name="Layer 1"><path class="cls-1" d="M33.33,16.43H6.48a4.64,4.64,0,0,1-4.63-4.62V6.48A4.65,4.65,0,0,1,6.48,1.85H33.33A4.65,4.65,0,0,1,38,6.48V11.8a4.64,4.64,0,0,1-4.63,4.63Z"/><path class="cls-2" d="M42,6.17H39.79A6.48,6.48,0,0,0,33.33,0H6.48A6.49,6.49,0,0,0,0,6.48V11.8a6.5,6.5,0,0,0,6.48,6.49H33.33a6.5,6.5,0,0,0,6.48-6.49V9.88H42a2.49,2.49,0,0,1,2.37,2.54,5.64,5.64,0,0,1-3.13,4.49L23.42,24.43A9.32,9.32,0,0,0,18,32.56v2a6.48,6.48,0,0,0-4.83,6.25V52.43a6.49,6.49,0,0,0,6.48,6.47h.47a6.5,6.5,0,0,0,6.48-6.48V40.85a6.49,6.49,0,0,0-4.9-6.27v-2a5.8,5.8,0,0,1,3.13-4.72l17.86-7.52a9.15,9.15,0,0,0,5.4-7.9A6.19,6.19,0,0,0,42,6.17ZM36.11,11.8a2.8,2.8,0,0,1-2.78,2.78H6.48A2.81,2.81,0,0,1,3.7,11.8V6.48A2.82,2.82,0,0,1,6.48,3.7H33.33a2.81,2.81,0,0,1,2.78,2.78V11.8ZM22.91,40.85V52.43a2.8,2.8,0,0,1-2.77,2.77h-.47a2.8,2.8,0,0,1-2.77-2.77V40.85a2.81,2.81,0,0,1,2.77-2.78h.47A2.8,2.8,0,0,1,22.91,40.85Z"/></g></g></svg>