<svg 
 xmlns="http://www.w3.org/2000/svg"
 xmlns:xlink="http://www.w3.org/1999/xlink"
 width="27px" height="27px">
<path fill-rule="evenodd"  fill="rgb(44, 50, 51)"
 d="M23.232,5.385 L25.421,7.573 C25.551,7.703 25.617,7.874 25.617,8.051 C25.617,8.229 25.551,8.399 25.420,8.529 L25.421,8.529 L11.488,22.461 L12.406,23.380 L26.340,9.448 C26.724,9.063 26.916,8.554 26.916,8.051 C26.916,7.547 26.724,7.038 26.339,6.655 L21.041,1.358 C20.656,0.973 20.148,0.781 19.644,0.781 C19.141,0.781 18.632,0.973 18.246,1.358 L4.317,15.289 L5.235,16.208 L19.166,2.277 C19.299,2.145 19.468,2.080 19.644,2.080 C19.822,2.080 19.992,2.145 20.123,2.277 L22.313,4.466 L9.100,17.679 L10.019,18.597 L23.232,5.385 ZM3.505,18.858 C3.235,18.595 2.918,18.384 2.496,18.377 C2.166,18.368 1.826,18.558 1.652,18.809 C1.470,19.060 1.396,19.340 1.369,19.639 L0.919,24.888 L0.919,24.888 C0.913,24.941 0.911,25.000 0.911,25.057 C0.908,25.527 1.090,25.973 1.408,26.288 C1.723,26.603 2.165,26.785 2.634,26.785 L2.639,26.785 C2.689,26.785 2.740,26.783 2.792,26.779 L8.060,26.328 C8.358,26.302 8.639,26.226 8.888,26.044 C9.139,25.869 9.329,25.531 9.321,25.201 C9.314,24.779 9.104,24.461 8.840,24.193 L3.505,18.858 Z"/>
</svg>