<svg xmlns="http://www.w3.org/2000/svg" xmlns:xlink="http://www.w3.org/1999/xlink" viewBox="0 0 37.3 61.85"><defs><style>.cls-1{fill:url(#New_Gradient_Swatch_4);}.cls-2{fill:#233148;}</style><linearGradient id="New_Gradient_Swatch_4" x1="1.99" y1="28.79" x2="35.31" y2="28.79" gradientUnits="userSpaceOnUse"><stop offset="0" stop-color="#15eded"/><stop offset="1" stop-color="#029cf5"/></linearGradient></defs><title>Asset 1</title><g id="Layer_2" data-name="Layer 2"><g id="Layer_1-2" data-name="Layer 1"><path class="cls-1" d="M30.32,49.62H7a5,5,0,0,1-5-5V12.94A5,5,0,0,1,7,8H30.32a5,5,0,0,1,5,5v31.7a5,5,0,0,1-5,5Z"/><path class="cls-2" d="M30.32,0H7A7,7,0,0,0,0,7V44.64H0V54.87a7,7,0,0,0,7,7H30.32a7,7,0,0,0,7-7h0V7A7,7,0,0,0,30.32,0ZM7,4H30.32a3,3,0,0,1,3,2.64,7,7,0,0,0-3-.67H7a7,7,0,0,0-3,.67A3,3,0,0,1,7,4ZM33.31,54.87a3,3,0,0,1-3,3H7a3,3,0,0,1-3-3V50.93a6.94,6.94,0,0,0,3,.68H30.32a6.94,6.94,0,0,0,3-.68Zm0-10.23a3,3,0,0,1-3,3H7a3,3,0,0,1-3-3V12.94a3,3,0,0,1,3-3H30.32a3,3,0,0,1,3,3Zm-10.79,8H14.78a1,1,0,0,0-1,1v2a1,1,0,0,0,1,1h7.74a1,1,0,0,0,1-1v-2A1,1,0,0,0,22.52,52.63Z"/></g></g></svg>