<svg xmlns="http://www.w3.org/2000/svg" xmlns:xlink="http://www.w3.org/1999/xlink" viewBox="0 0 51.74 52.72"><defs><style>.cls-1{fill:url(#New_Gradient_Swatch_4);}.cls-2{fill:#233148;}</style><linearGradient id="New_Gradient_Swatch_4" x1="6.8" y1="15.45" x2="50.19" y2="15.45" gradientUnits="userSpaceOnUse"><stop offset="0" stop-color="#15eded"/><stop offset="1" stop-color="#029cf5"/></linearGradient></defs><title>Asset 1</title><g id="Layer_2" data-name="Layer 2"><g id="Layer_1-2" data-name="Layer 1"><path class="cls-1" d="M42.78,25.09,50,4.48a2.44,2.44,0,0,0,.16-.83,1.11,1.11,0,0,0-.33-.86,1.53,1.53,0,0,0-.41-.24l-.17,0-.16,0a2.33,2.33,0,0,0-.53-.06H9.83a3.06,3.06,0,0,0-3,3v21A3.05,3.05,0,0,0,9.66,28.5H38A5.71,5.71,0,0,0,42.78,25.09Z"/><path class="cls-2" d="M16.47,42.07a5.33,5.33,0,1,0,5.32,5.33A5.32,5.32,0,0,0,16.47,42.07Zm0,7a1.68,1.68,0,1,1,1.67-1.67A1.68,1.68,0,0,1,16.47,49.07Zm21.25-7a5.33,5.33,0,1,0,5.33,5.32A5.32,5.32,0,0,0,37.72,42.07Zm0,7a1.68,1.68,0,1,1,1.68-1.68A1.68,1.68,0,0,1,37.72,49.07ZM50.26,1.33A5,5,0,0,0,47.72.12l-.2,0a5.38,5.38,0,0,0-.9-.08H1.83a1.83,1.83,0,1,0,0,3.65H5.88A6.3,6.3,0,0,0,5.25,6.4V34.54a6.41,6.41,0,0,0,6.39,6.39H44.8a1.83,1.83,0,0,0,0-3.65H11.64A2.78,2.78,0,0,1,8.9,34.54v-4.2a6.39,6.39,0,0,0,2.59.55H37a8.68,8.68,0,0,0,7.8-5.52l4.52-12.85,2-5.77a5.82,5.82,0,0,0,.35-1.95A4.65,4.65,0,0,0,50.26,1.33ZM47.94,5.55,41.4,24.15A5.18,5.18,0,0,1,37,27.24H11.49A2.76,2.76,0,0,1,8.9,25.35V6.4a2.77,2.77,0,0,1,2.73-2.74h35a2.52,2.52,0,0,1,.48.05l.14,0,.16,0a1.17,1.17,0,0,1,.37.22,1,1,0,0,1,.3.78A2.24,2.24,0,0,1,47.94,5.55Z"/></g></g></svg>