<svg 
 xmlns="http://www.w3.org/2000/svg"
 xmlns:xlink="http://www.w3.org/1999/xlink"
 width="16px" height="31px">
<path fill-rule="evenodd"  fill="rgb(44, 50, 51)"
 d="M15.018,17.258 C14.779,13.362 11.990,10.178 8.370,9.745 L8.370,9.474 C8.337,8.653 7.894,7.944 7.174,7.555 L3.657,5.828 C3.483,5.778 3.191,5.309 3.224,5.132 L3.224,3.792 C3.224,3.673 3.330,3.564 3.449,3.564 L8.936,3.564 L8.936,4.042 C8.937,5.053 9.756,5.869 10.768,5.872 L12.175,5.872 C13.185,5.869 14.004,5.053 14.006,4.042 L14.006,2.633 C14.004,1.623 13.185,0.804 12.175,0.801 L10.768,0.803 C9.905,0.804 9.189,1.400 8.994,2.202 L3.449,2.202 C2.571,2.205 1.861,2.912 1.860,3.792 L1.860,5.132 C1.891,5.953 2.334,6.662 3.055,7.053 L6.572,8.778 C6.746,8.829 7.037,9.296 7.006,9.474 L7.006,9.722 C3.246,10.015 0.317,13.261 0.070,17.258 L0.053,17.258 L0.053,28.253 C0.055,29.762 1.279,30.989 2.791,30.991 L12.299,30.991 C13.809,30.989 15.033,29.762 15.035,28.253 L15.035,17.258 L15.018,17.258 ZM10.300,2.633 C10.301,2.380 10.516,2.167 10.768,2.167 L12.175,2.167 C12.426,2.167 12.641,2.380 12.643,2.633 L12.643,4.042 C12.641,4.293 12.426,4.508 12.175,4.508 L10.768,4.509 C10.516,4.508 10.301,4.293 10.300,4.042 L10.300,2.633 ZM8.297,15.483 C8.548,15.483 8.762,15.696 8.762,15.949 L8.762,17.358 C8.762,17.608 8.548,17.822 8.297,17.825 L6.888,17.825 C6.636,17.822 6.422,17.608 6.422,17.358 L6.422,15.949 C6.422,15.696 6.636,15.483 6.888,15.483 L8.297,15.483 ZM13.671,18.622 L13.671,28.253 C13.669,29.004 13.049,29.625 12.299,29.627 L2.791,29.627 C2.040,29.625 1.420,29.004 1.418,28.253 L1.418,18.622 L1.425,18.622 L1.425,17.938 C1.422,17.829 1.416,17.789 1.418,17.789 C1.422,14.231 3.913,11.391 7.006,11.087 L7.006,14.119 L6.888,14.119 C5.876,14.120 5.059,14.936 5.058,15.949 L5.058,17.358 C5.059,18.370 5.876,19.184 6.888,19.189 L8.297,19.188 C9.307,19.184 10.124,18.370 10.126,17.358 L10.126,15.949 C10.124,14.962 9.346,14.167 8.370,14.125 L8.370,11.127 C11.328,11.573 13.669,14.343 13.671,17.789 L13.672,17.789 C13.672,17.789 13.666,17.829 13.665,17.938 L13.665,18.622 L13.671,18.622 Z"/>
</svg>